<svg id="Layer_1" data-name="Layer 1" xmlns="http://www.w3.org/2000/svg" viewBox="0 0 88.12 23.96"><path d="M44.43.49A49.15,49.15,0,0,0,36.57,0,15.75,15.75,0,0,0,31.19,1.1a5,5,0,0,0-3.36,3.72,25.15,25.15,0,0,0-.34,8.3,7.08,7.08,0,0,0,2.12,4.52,3.38,3.38,0,0,0,1.68.88c.76.13,1.53.23,2.29.41a1.56,1.56,0,0,1,1.32,1.61c.06.89.12,1.77.21,2.65s.46,1,1.11.51l6-4.31a3.94,3.94,0,0,1,2-.74,4.82,4.82,0,0,0,3.21-1.52,7.34,7.34,0,0,0,1.85-3.76,24.51,24.51,0,0,0-.07-7.74A5.81,5.81,0,0,0,44.43.49Z" transform="translate(0.01 -0.03)" fill="#f43c5a"></path><path d="M55.18,13.63V5.46A.58.58,0,0,0,55,5.05c-.08-.06-.29,0-.4.1Q52.82,6.4,51.05,7.67a.54.54,0,0,0-.19.37v2.87a.68.68,0,0,0,.21.44c.26.23.57.4.84.61l2.56,2c.15.12.3.27.52.16S55.18,13.83,55.18,13.63Z" transform="translate(0.01 -0.03)" fill="#f43c5a"></path><path d="M15.9,8.66a3.17,3.17,0,0,0-3.25-3.09h-.16A3.45,3.45,0,0,0,9,7.89a5.6,5.6,0,0,0,.08,3.83c.56,1.48,1.85,2,3.56,1.81a3,3,0,0,0,1.52-.7v.71H16V9.93A10.86,10.86,0,0,0,15.9,8.66Zm-1.81,1.72a.48.48,0,0,1-.07.3A1.58,1.58,0,0,1,12.19,12a1.63,1.63,0,0,1-1.49-1.48,3.55,3.55,0,0,1,.2-2.25,1.61,1.61,0,0,1,1.92-.83,1.44,1.44,0,0,1,1.25,1.24,1,1,0,0,0,.06.41,4.86,4.86,0,0,1,0,1.32Z" transform="translate(0.01 -0.03)" fill="currentColor"></path><path d="M3.31,7.33a2.12,2.12,0,0,1,1,.07.94.94,0,0,1,.22.12H4.6a.8.8,0,0,1,.17.15l.07.06a2,2,0,0,1,.37.62l.14.31H7.21V8.41A3.15,3.15,0,0,0,6.07,6.34h0a2,2,0,0,0-.33-.25,3.66,3.66,0,0,0-1.55-.58A3.54,3.54,0,0,0,.56,7.26a5.15,5.15,0,0,0-.49,3.23,3.36,3.36,0,0,0,3.51,3.14,3.33,3.33,0,0,0,3.58-3H5.34a1.89,1.89,0,0,0-.11.25,1.59,1.59,0,0,1-1.85,1A1.5,1.5,0,0,1,2,10.55a6.78,6.78,0,0,1,0-1.8A1.52,1.52,0,0,1,3.31,7.33Z" transform="translate(0.01 -0.03)" fill="currentColor"></path><rect x="18.05" y="3.62" width="1.87" height="9.86" fill="currentColor"></rect><rect x="21.79" y="3.62" width="1.87" height="9.86" fill="currentColor"></rect><path d="M88.11,7.79V6H86.39V4.06h-2v6.82a2.8,2.8,0,0,0,.6,1.93,1.75,1.75,0,0,0,1.62.67,3.91,3.91,0,0,0,1.4-.22V11.5a1.74,1.74,0,0,1-.71.12.91.91,0,0,1-.7-.25,1.2,1.2,0,0,1-.21-.78V7.79Z" transform="translate(0.01 -0.03)" fill="currentColor"></path><path d="M82.48,8.54a3.2,3.2,0,0,0-3.32-3.06H79a3.45,3.45,0,0,0-3.51,2.32,5.66,5.66,0,0,0,.08,3.85c.56,1.49,1.86,2,3.58,1.82a2.92,2.92,0,0,0,1.52-.7v.71h1.8V9.86A7.22,7.22,0,0,0,82.48,8.54Zm-1.82,1.73a.51.51,0,0,1-.07.31,1.6,1.6,0,0,1-1.84,1.29,1.63,1.63,0,0,1-1.53-1.48,3.58,3.58,0,0,1,.22-2.26,1.63,1.63,0,0,1,1.93-.85,1.46,1.46,0,0,1,1.26,1.21l.06.42A5.16,5.16,0,0,1,80.66,10.27Z" transform="translate(0.01 -0.03)" fill="currentColor"></path><path d="M61.47,7.17a2,2,0,0,1,1,.07l.23.11.06.05a.84.84,0,0,1,.18.15l.06.06a2.07,2.07,0,0,1,.38.62,2.88,2.88,0,0,0,.13.31h1.87V8.29a3.11,3.11,0,0,0-1.14-2.08h0A2,2,0,0,0,63.91,6a3.67,3.67,0,0,0-5.18,1.17,5.08,5.08,0,0,0-.44,3.21,3.58,3.58,0,0,0,7.09.09H63.5l-.11.26a1.58,1.58,0,0,1-1.85,1,1.51,1.51,0,0,1-1.37-1.33,6.78,6.78,0,0,1,0-1.8A1.54,1.54,0,0,1,61.47,7.17Z" transform="translate(0.01 -0.03)" fill="currentColor"></path><path d="M73.66,8.28a2.7,2.7,0,0,0-2.73-2.67,2.58,2.58,0,0,0-.73.11,4.57,4.57,0,0,0-1.36.68V3.08H67v8.3h0v2.11h1.87v-2.1h0V9.24a3.73,3.73,0,0,1,.07-.82c.15-.7.64-1,1.51-1s1.23.36,1.33,1.08a7.53,7.53,0,0,1,0,.95v4h1.89v-2.1h0C73.68,10.34,73.68,9.31,73.66,8.28Z" transform="translate(0.01 -0.03)" fill="currentColor"></path><path d="M39.79,12.58H38v-3c0-.77-.27-1.16-.79-1.16a.76.76,0,0,0-.68.35,1.4,1.4,0,0,0-.24.84v3H34.45V9.43c0-.69-.26-1-.78-1a.77.77,0,0,0-.67.34,1.4,1.4,0,0,0-.24.84v3H30.9V7.06h1.76v.76h0a1.9,1.9,0,0,1,1.65-.92A1.74,1.74,0,0,1,36,7.84a2,2,0,0,1,1.76-.94,1.89,1.89,0,0,1,1.83,1.21,2.89,2.89,0,0,1,.17,1.05Z" transform="translate(0.01 -0.03)" fill="#fff"></path><path d="M46.64,9.88v.43h-4a1,1,0,0,0,.43.75,1.53,1.53,0,0,0,2.11-.28l1.26.8a2.84,2.84,0,0,1-2.54,1.17A3.09,3.09,0,0,1,41.73,12a2.7,2.7,0,0,1-.83-2.13,2.84,2.84,0,0,1,.85-2.15,3,3,0,0,1,2.15-.81,2.63,2.63,0,0,1,2,.8A3.06,3.06,0,0,1,46.64,9.88Zm-4-.7H45a1,1,0,0,0-.28-.75,1.07,1.07,0,0,0-.81-.3,1.35,1.35,0,0,0-.86.31,1.08,1.08,0,0,0-.4.74Z" transform="translate(0.01 -0.03)" fill="#fff"></path></svg>