<?xml version="1.0" standalone="no"?>
<!DOCTYPE svg PUBLIC "-//W3C//DTD SVG 20010904//EN"
 "http://www.w3.org/TR/2001/REC-SVG-20010904/DTD/svg10.dtd">
<svg version="1.0" xmlns="http://www.w3.org/2000/svg"
 width="200.000000pt" height="200.000000pt" viewBox="0 0 200.000000 200.000000"
 preserveAspectRatio="xMidYMid meet">

<g transform="translate(0.000000,200.000000) scale(0.100000,-0.100000)"
fill="#000000" stroke="none">
<path d="M884 1910 c-381 -48 -699 -343 -781 -725 -20 -90 -19 -279 0 -370 49
-229 192 -444 382 -572 83 -56 146 -86 243 -117 386 -122 805 27 1032 365 103
155 151 315 152 509 0 182 -43 335 -139 488 -184 295 -542 465 -889 422z m116
-910 l0 -830 -47 0 c-116 1 -287 58 -402 134 -238 158 -372 409 -372 695 0
226 74 412 230 575 141 148 364 252 544 255 l47 1 0 -830z"/>
</g>
</svg>
